<svg xmlns="http://www.w3.org/2000/svg" xmlns:xlink="http://www.w3.org/1999/xlink" version="1.1" x="0px" y="0px" width="100px" height="100px" viewBox="0 0 100 100" enable-background="new 0 0 100 100" xml:space="preserve">
<g id="Captions">
</g>
<g id="Your_Icon">
	<path fill="#000000" d="M89,18H11c-3.59,0-6.5,2.91-6.5,6.5S7.41,31,11,31h78c3.59,0,6.5-2.91,6.5-6.5S92.59,18,89,18z"/>
	<path fill="#000000" d="M89,45H11c-3.59,0-6.5,2.91-6.5,6.5S7.41,58,11,58h78c3.59,0,6.5-2.91,6.5-6.5S92.59,45,89,45z"/>
	<path fill="#000000" d="M95.5,78.5c0-3.59-2.91-6.5-6.5-6.5H11c-3.59,0-6.5,2.91-6.5,6.5S7.41,85,11,85h78   C92.59,85,95.5,82.09,95.5,78.5z"/>
</g>
</svg>